<svg id="Camada_1" data-name="Camada 1" xmlns="http://www.w3.org/2000/svg" xmlns:xlink="http://www.w3.org/1999/xlink" viewBox="0 0 512 512"><defs><style>.cls-1{fill:url(#Gradiente_sem_nome_24);}</style><linearGradient id="Gradiente_sem_nome_24" x1="22.49" y1="489.51" x2="489.51" y2="22.49" gradientUnits="userSpaceOnUse"><stop offset="0" stop-color="#e86f51"/><stop offset="0.5" stop-color="#f5a462"/><stop offset="1" stop-color="#e8c468"/></linearGradient></defs><path class="cls-1" d="M25.6,179.2a25.6,25.6,0,0,0,25.6-25.6V76.8A25.6,25.6,0,0,1,76.8,51.2h76.8a25.6,25.6,0,0,0,0-51.2H76.8A76.79,76.79,0,0,0,0,76.8v76.8A25.6,25.6,0,0,0,25.6,179.2Zm128,281.6H76.8a25.6,25.6,0,0,1-25.6-25.6V358.4a25.6,25.6,0,0,0-51.2,0v76.8A76.79,76.79,0,0,0,76.8,512h76.8a25.6,25.6,0,1,0,0-51.2ZM384,281.6a25.6,25.6,0,1,0,0-51.2H354.82a102.4,102.4,0,0,0-73.22-73.22V128a25.6,25.6,0,0,0-51.2,0v29.18a102.4,102.4,0,0,0-73.22,73.22H128a25.6,25.6,0,1,0,0,51.2h29.18a102.4,102.4,0,0,0,73.22,73.22V384a25.6,25.6,0,0,0,51.2,0V354.82a102.4,102.4,0,0,0,73.22-73.22ZM256,307.2A51.2,51.2,0,1,1,307.2,256,51.2,51.2,0,0,1,256,307.2Zm230.4,25.6a25.6,25.6,0,0,0-25.6,25.6v76.8a25.6,25.6,0,0,1-25.6,25.6H358.4a25.6,25.6,0,1,0,0,51.2h76.8A76.79,76.79,0,0,0,512,435.2V358.4A25.6,25.6,0,0,0,486.4,332.8ZM435.2,0H358.4a25.6,25.6,0,1,0,0,51.2h76.8a25.6,25.6,0,0,1,25.6,25.6v76.8a25.6,25.6,0,0,0,51.2,0V76.8A76.79,76.79,0,0,0,435.2,0Z"/></svg>