<svg xmlns="http://www.w3.org/2000/svg" xmlns:xlink="http://www.w3.org/1999/xlink" viewBox="0 0 157.7 192"><defs><style>.cls-1{fill-rule:evenodd;fill:url(#Gradiente_sem_nome_3);}</style><linearGradient id="Gradiente_sem_nome_3" x1="78.85" y1="192" x2="78.85" gradientUnits="userSpaceOnUse"><stop offset="0" stop-color="#e86f51"/><stop offset="0.5" stop-color="#f5a462"/><stop offset="1" stop-color="#e8c468"/></linearGradient></defs><g id="Camada_2" data-name="Camada 2"><g id="Camada_1-2" data-name="Camada 1"><path class="cls-1" d="M142,152.29l-85.5,25.49a3.59,3.59,0,0,1-4.57-4.15L82.47,26.15A3,3,0,0,1,86,23.89a2.92,2.92,0,0,1,2,1.62l56.56,121.08a4.11,4.11,0,0,1-2,5.47A4.49,4.49,0,0,1,142,152.29Zm14.66-6L91.19,6.08h0a10.51,10.51,0,0,0-9-6.06,10.38,10.38,0,0,0-9.59,5l-71,116a10.92,10.92,0,0,0,.13,11.66l34.72,54.22A11.15,11.15,0,0,0,49,191.54l100.78-30a11,11,0,0,0,7.47-13.6,13,13,0,0,0-.61-1.61Z"/></g></g></svg>