<svg width="2687" height="512" viewBox="0 0 2687 512" fill="none" xmlns="http://www.w3.org/2000/svg">
<path d="M722.752 157.712C707.2 157.712 694.24 161.744 682.432 168.944L683.872 161.168H614.464L606.976 204.656H624.832L604.96 318.128H586.816L579.04 361.616H673.792L681.568 318.128H656.224L660.544 293.36C669.472 300.848 680.992 304.88 696.544 304.88C738.88 304.88 780.64 268.016 780.64 219.632C780.64 183.632 756.16 157.712 722.752 157.712ZM692.8 263.12C683.872 263.12 675.808 260.816 667.744 252.176L675.232 209.84C686.176 201.488 695.392 199.184 704.32 199.184C719.584 199.184 729.664 210.704 729.664 225.968C729.664 246.704 712.384 263.12 692.8 263.12ZM944.564 158.864C918.644 158.864 900.5 166.352 885.524 175.856L888.116 161.168H818.996L811.22 204.656H829.076L819.86 258.512H801.716L793.94 302H892.724L900.5 258.512H871.124L878.324 217.328C891.86 214.448 908.852 211.856 935.348 211.28L944.564 158.864ZM1017.95 86.288C1000.96 86.288 987.136 98.96 987.136 115.952C987.136 132.656 1000.96 145.328 1017.95 145.328C1034.66 145.328 1048.48 132.656 1048.48 115.952C1048.48 98.96 1034.66 86.288 1017.95 86.288ZM1019.68 258.512L1036.67 161.168H967.264L959.776 204.656H977.632L968.416 258.512H950.272L942.496 302H1029.76L1037.54 258.512H1019.68ZM1171.87 208.112H1213.92L1221.98 160.88H1176.19L1174.75 168.656C1165.82 161.456 1152.86 157.136 1135.58 157.136C1106.78 157.136 1076.26 173.84 1076.26 206.672C1076.26 227.12 1089.22 242.384 1114.85 246.416L1141.06 250.448C1149.12 251.888 1152.58 254.48 1152.58 258.512C1152.58 263.984 1147.39 268.88 1136.16 268.88C1122.34 268.88 1114.27 261.968 1107.07 251.888H1067.9L1058.98 301.712H1103.9L1105.34 293.072C1114.27 300.56 1127.23 306.32 1145.66 306.32C1178.5 306.32 1210.18 289.04 1210.18 253.904C1210.18 233.744 1197.5 220.208 1173.6 216.176L1149.41 212.144C1136.16 209.84 1132.7 205.52 1132.7 202.064C1132.7 197.168 1136.74 193.424 1146.53 193.424C1158.05 193.424 1164.38 198.608 1170.43 208.112L1171.87 207.824V208.112ZM1507.12 258.512H1488.98L1495.89 219.632C1502.8 180.176 1483.51 156.848 1450.1 156.848C1430.8 156.848 1415.54 162.032 1398.55 176.144C1390.77 163.76 1376.66 156.848 1358.8 156.848C1343.83 156.848 1332.88 160.88 1321.94 169.52L1323.38 161.168H1253.97L1246.19 204.656H1264.34L1254.83 258.512H1236.98L1228.91 302H1316.47L1324.24 258.512H1306.1L1314.16 212.72C1321.07 205.808 1327.41 202.928 1334.03 202.928C1346.99 202.928 1354.48 210.992 1351.31 229.424L1338.64 302H1407.76L1415.54 258.512H1397.39L1404.31 219.632C1404.88 217.04 1405.17 214.736 1405.46 212.432C1412.37 205.52 1418.99 202.928 1425.33 202.928C1438.58 202.928 1446.07 210.992 1442.9 229.424L1429.94 302H1499.35L1507.12 258.512ZM1704.3 258.512H1687.31L1704.02 172.976C1687.02 168.656 1651.6 157.712 1618.77 157.712C1568.37 157.712 1531.22 197.456 1531.22 242.96C1531.22 279.824 1556.56 305.456 1593.14 305.456C1606.1 305.456 1617.62 301.424 1629.14 293.648L1627.41 302H1696.53L1704.3 258.512ZM1608.4 263.12C1592.56 263.12 1582.19 252.176 1582.19 236.336C1582.19 215.312 1599.76 198.608 1618.77 198.608C1625.97 198.608 1635.76 199.76 1647.28 202.352L1638.06 248.72C1628.85 258.512 1618.77 263.12 1608.4 263.12ZM1761.59 305.456C1778.3 305.456 1792.41 292.784 1792.41 275.792C1792.41 259.376 1778.3 246.704 1761.59 246.704C1744.89 246.704 1731.06 259.376 1731.06 275.792C1731.06 292.784 1744.89 305.456 1761.59 305.456ZM1947.63 124.016C1954.55 124.016 1962.61 125.168 1969.23 126.608L1983.35 84.272C1968.37 80.24 1957.14 78.512 1945.04 78.512C1909.04 78.512 1877.36 103.856 1869.87 147.344L1867.57 161.168H1835.31L1827.83 204.656H1859.79L1850.29 258.512H1830.71L1823.22 302H1924.02L1931.79 258.512H1901.55L1911.06 204.656H1958.58L1966.07 161.168H1918.55L1920.85 148.496C1923.73 132.368 1934.1 124.016 1947.63 124.016ZM2059.37 157.712C2011.56 157.712 1972.68 192.848 1972.68 238.928C1972.68 277.808 2000.61 306.32 2042.95 306.32C2091.05 306.32 2129.64 269.744 2129.64 224.24C2129.64 185.648 2101.99 157.712 2059.37 157.712ZM2046.98 262.832C2030.28 262.832 2020.49 250.448 2020.49 235.472C2020.49 216.752 2036.33 201.2 2055.33 201.2C2072.04 201.2 2081.54 213.296 2081.54 227.984C2081.54 246.704 2065.99 262.832 2046.98 262.832ZM2237.09 199.76C2251.2 199.76 2261 208.112 2262.44 220.496H2307.94L2318.31 161.168H2274.53L2272.8 170.384C2264.16 162.32 2251.49 158 2235.94 158C2194.76 158 2159.33 187.952 2154.15 231.44C2148.68 274.64 2178.92 305.168 2225.28 305.168C2268.2 305.168 2298.44 278.96 2305.92 242.384H2258.98C2254.95 254.768 2242.85 263.12 2229.03 263.12C2211.46 263.12 2199.65 249.584 2201.96 231.44C2204.26 213.008 2220.1 199.76 2237.09 199.76ZM2488.66 258.512L2505.65 161.168H2436.24L2428.76 204.656H2446.61L2439.12 248.72C2430.48 256.496 2422.13 260.24 2414.36 260.24C2401.4 260.24 2393.04 252.176 2396.5 233.744L2409.17 161.168H2340.63L2332.85 204.656H2350.13L2343.22 243.536C2336.31 282.992 2356.47 306.32 2391.03 306.32C2405.72 306.32 2418.39 301.712 2431.35 292.496L2429.62 302H2498.16L2505.65 258.512H2488.66ZM2636.79 208.112H2678.84L2686.9 160.88H2641.11L2639.67 168.656C2630.74 161.456 2617.78 157.136 2600.5 157.136C2571.7 157.136 2541.18 173.84 2541.18 206.672C2541.18 227.12 2554.14 242.384 2579.77 246.416L2605.98 250.448C2614.04 251.888 2617.5 254.48 2617.5 258.512C2617.5 263.984 2612.31 268.88 2601.08 268.88C2587.26 268.88 2579.19 261.968 2571.99 251.888H2532.82L2523.9 301.712H2568.82L2570.26 293.072C2579.19 300.56 2592.15 306.32 2610.58 306.32C2643.42 306.32 2675.1 289.04 2675.1 253.904C2675.1 233.744 2662.42 220.208 2638.52 216.176L2614.33 212.144C2601.08 209.84 2597.62 205.52 2597.62 202.064C2597.62 197.168 2601.66 193.424 2611.45 193.424C2622.97 193.424 2629.3 198.608 2635.35 208.112L2636.79 207.824V208.112Z" fill="url(#paint0_linear_152113_202)"/>
<g clip-path="url(#clip0_152113_202)">
<path d="M25.6 179.2C32.3895 179.2 38.901 176.503 43.7019 171.702C48.5029 166.901 51.2 160.39 51.2 153.6V76.8C51.2 70.0105 53.8971 63.499 58.6981 58.6981C63.499 53.8971 70.0105 51.2 76.8 51.2H153.6C160.39 51.2 166.901 48.5029 171.702 43.7019C176.503 38.901 179.2 32.3895 179.2 25.6C179.2 18.8105 176.503 12.299 171.702 7.49807C166.901 2.69714 160.39 6.51271e-07 153.6 6.51271e-07H76.8C66.7141 -0.00131287 56.7268 1.98428 47.4084 5.84338C38.09 9.70247 29.6231 15.3595 22.4913 22.4913C15.3595 29.6231 9.70247 38.09 5.84338 47.4084C1.98428 56.7268 -0.00131352 66.7141 0 76.8V153.6C0 160.39 2.69713 166.901 7.49807 171.702C12.299 176.503 18.8105 179.2 25.6 179.2V179.2ZM153.6 460.8H76.8C70.0105 460.8 63.499 458.103 58.6981 453.302C53.8971 448.501 51.2 441.99 51.2 435.2V358.4C51.2 351.61 48.5029 345.099 43.7019 340.298C38.901 335.497 32.3895 332.8 25.6 332.8C18.8105 332.8 12.299 335.497 7.49807 340.298C2.69713 345.099 0 351.61 0 358.4V435.2C-0.00131352 445.286 1.98428 455.273 5.84338 464.592C9.70247 473.91 15.3595 482.377 22.4913 489.509C29.6231 496.641 38.09 502.298 47.4084 506.157C56.7268 510.016 66.7141 512.001 76.8 512H153.6C160.39 512 166.901 509.303 171.702 504.502C176.503 499.701 179.2 493.19 179.2 486.4C179.2 479.61 176.503 473.099 171.702 468.298C166.901 463.497 160.39 460.8 153.6 460.8V460.8ZM384 281.6C387.362 281.6 390.691 280.938 393.797 279.651C396.903 278.365 399.725 276.479 402.102 274.102C404.479 271.725 406.365 268.903 407.651 265.797C408.938 262.691 409.6 259.362 409.6 256C409.6 252.638 408.938 249.309 407.651 246.203C406.365 243.097 404.479 240.275 402.102 237.898C399.725 235.521 396.903 233.635 393.797 232.349C390.691 231.062 387.362 230.4 384 230.4H354.82C350.224 212.79 341.017 196.723 328.147 183.853C315.277 170.983 299.21 161.776 281.6 157.18V128C281.6 121.21 278.903 114.699 274.102 109.898C269.301 105.097 262.79 102.4 256 102.4C249.21 102.4 242.699 105.097 237.898 109.898C233.097 114.699 230.4 121.21 230.4 128V157.18C212.79 161.776 196.723 170.983 183.853 183.853C170.983 196.723 161.776 212.79 157.18 230.4H128C121.21 230.4 114.699 233.097 109.898 237.898C105.097 242.699 102.4 249.21 102.4 256C102.4 262.79 105.097 269.301 109.898 274.102C114.699 278.903 121.21 281.6 128 281.6H157.18C161.776 299.21 170.983 315.277 183.853 328.147C196.723 341.017 212.79 350.224 230.4 354.82V384C230.4 390.79 233.097 397.301 237.898 402.102C242.699 406.903 249.21 409.6 256 409.6C262.79 409.6 269.301 406.903 274.102 402.102C278.903 397.301 281.6 390.79 281.6 384V354.82C299.21 350.224 315.277 341.017 328.147 328.147C341.017 315.277 350.224 299.21 354.82 281.6H384ZM256 307.2C245.874 307.2 235.975 304.197 227.555 298.571C219.135 292.945 212.573 284.949 208.697 275.593C204.822 266.238 203.808 255.943 205.784 246.011C207.759 236.08 212.636 226.957 219.796 219.796C226.957 212.636 236.08 207.759 246.011 205.784C255.943 203.808 266.238 204.822 275.593 208.697C284.949 212.573 292.945 219.135 298.571 227.555C304.197 235.975 307.2 245.874 307.2 256C307.2 269.579 301.806 282.602 292.204 292.204C282.602 301.806 269.579 307.2 256 307.2ZM486.4 332.8C483.038 332.8 479.709 333.462 476.603 334.749C473.497 336.035 470.675 337.921 468.298 340.298C465.921 342.675 464.035 345.497 462.749 348.603C461.462 351.709 460.8 355.038 460.8 358.4V435.2C460.8 438.562 460.138 441.891 458.851 444.997C457.565 448.103 455.679 450.925 453.302 453.302C450.925 455.679 448.103 457.565 444.997 458.851C441.891 460.138 438.562 460.8 435.2 460.8H358.4C351.61 460.8 345.099 463.497 340.298 468.298C335.497 473.099 332.8 479.61 332.8 486.4C332.8 493.19 335.497 499.701 340.298 504.502C345.099 509.303 351.61 512 358.4 512H435.2C445.286 512.001 455.273 510.016 464.592 506.157C473.91 502.298 482.377 496.641 489.509 489.509C496.641 482.377 502.298 473.91 506.157 464.592C510.016 455.273 512.001 445.286 512 435.2V358.4C512 351.61 509.303 345.099 504.502 340.298C499.701 335.497 493.19 332.8 486.4 332.8V332.8ZM435.2 6.51271e-07H358.4C351.61 6.51271e-07 345.099 2.69714 340.298 7.49807C335.497 12.299 332.8 18.8105 332.8 25.6C332.8 32.3895 335.497 38.901 340.298 43.7019C345.099 48.5029 351.61 51.2 358.4 51.2H435.2C438.562 51.2 441.891 51.8622 444.997 53.1487C448.103 54.4352 450.925 56.3209 453.302 58.6981C455.679 61.0752 457.565 63.8974 458.851 67.0033C460.138 70.1092 460.8 73.4382 460.8 76.8V153.6C460.8 160.39 463.497 166.901 468.298 171.702C473.099 176.503 479.61 179.2 486.4 179.2C493.19 179.2 499.701 176.503 504.502 171.702C509.303 166.901 512 160.39 512 153.6V76.8C512.001 66.7141 510.016 56.7268 506.157 47.4084C502.298 38.09 496.641 29.6231 489.509 22.4913C482.377 15.3595 473.91 9.70247 464.592 5.84338C455.273 1.98428 445.286 -0.00131287 435.2 6.51271e-07V6.51271e-07Z" fill="url(#paint1_linear_152113_202)"/>
</g>
<defs>
<linearGradient id="paint0_linear_152113_202" x1="1639.5" y1="374" x2="1639.5" y2="88" gradientUnits="userSpaceOnUse">
<stop stop-color="#E86F51"/>
<stop offset="0.494792" stop-color="#F5A462"/>
<stop offset="1" stop-color="#E8C468"/>
</linearGradient>
<linearGradient id="paint1_linear_152113_202" x1="22.49" y1="489.51" x2="489.51" y2="22.49" gradientUnits="userSpaceOnUse">
<stop stop-color="#E86F51"/>
<stop offset="0.5" stop-color="#F5A462"/>
<stop offset="1" stop-color="#E8C468"/>
</linearGradient>
<clipPath id="clip0_152113_202">
<rect width="512" height="512" fill="white"/>
</clipPath>
</defs>
</svg>
