<svg width="362" height="68" viewBox="0 0 362 68" fill="none" xmlns="http://www.w3.org/2000/svg">
<path d="M102.252 20.962C100.2 20.962 98.49 21.494 96.932 22.444L97.122 21.418H87.964L86.976 27.156H89.332L86.71 42.128H84.316L83.29 47.866H95.792L96.818 42.128H93.474L94.044 38.86C95.222 39.848 96.742 40.38 98.794 40.38C104.38 40.38 109.89 35.516 109.89 29.132C109.89 24.382 106.66 20.962 102.252 20.962ZM98.3 34.87C97.122 34.87 96.058 34.566 94.994 33.426L95.982 27.84C97.426 26.738 98.642 26.434 99.82 26.434C101.834 26.434 103.164 27.954 103.164 29.968C103.164 32.704 100.884 34.87 98.3 34.87ZM131.519 21.114C128.099 21.114 125.705 22.102 123.729 23.356L124.071 21.418H114.951L113.925 27.156H116.281L115.065 34.262H112.671L111.645 40H124.679L125.705 34.262H121.829L122.779 28.828C124.565 28.448 126.807 28.106 130.303 28.03L131.519 21.114ZM141.202 11.538C138.96 11.538 137.136 13.21 137.136 15.452C137.136 17.656 138.96 19.328 141.202 19.328C143.406 19.328 145.23 17.656 145.23 15.452C145.23 13.21 143.406 11.538 141.202 11.538ZM141.43 34.262L143.672 21.418H134.514L133.526 27.156H135.882L134.666 34.262H132.272L131.246 40H142.76L143.786 34.262H141.43ZM161.511 27.612H167.059L168.123 21.38H162.081L161.891 22.406C160.713 21.456 159.003 20.886 156.723 20.886C152.923 20.886 148.895 23.09 148.895 27.422C148.895 30.12 150.605 32.134 153.987 32.666L157.445 33.198C158.509 33.388 158.965 33.73 158.965 34.262C158.965 34.984 158.281 35.63 156.799 35.63C154.975 35.63 153.911 34.718 152.961 33.388H147.793L146.615 39.962H152.543L152.733 38.822C153.911 39.81 155.621 40.57 158.053 40.57C162.385 40.57 166.565 38.29 166.565 33.654C166.565 30.994 164.893 29.208 161.739 28.676L158.547 28.144C156.799 27.84 156.343 27.27 156.343 26.814C156.343 26.168 156.875 25.674 158.167 25.674C159.687 25.674 160.523 26.358 161.321 27.612L161.511 27.574V27.612ZM205.745 34.262H203.351L204.263 29.132C205.175 23.926 202.629 20.848 198.221 20.848C195.675 20.848 193.661 21.532 191.419 23.394C190.393 21.76 188.531 20.848 186.175 20.848C184.199 20.848 182.755 21.38 181.311 22.52L181.501 21.418H172.343L171.317 27.156H173.711L172.457 34.262H170.101L169.037 40H180.589L181.615 34.262H179.221L180.285 28.22C181.197 27.308 182.033 26.928 182.907 26.928C184.617 26.928 185.605 27.992 185.187 30.424L183.515 40H192.635L193.661 34.262H191.267L192.179 29.132C192.255 28.79 192.293 28.486 192.331 28.182C193.243 27.27 194.117 26.928 194.953 26.928C196.701 26.928 197.689 27.992 197.271 30.424L195.561 40H204.719L205.745 34.262ZM231.762 34.262H229.52L231.724 22.976C229.482 22.406 224.808 20.962 220.476 20.962C213.826 20.962 208.924 26.206 208.924 32.21C208.924 37.074 212.268 40.456 217.094 40.456C218.804 40.456 220.324 39.924 221.844 38.898L221.616 40H230.736L231.762 34.262ZM219.108 34.87C217.018 34.87 215.65 33.426 215.65 31.336C215.65 28.562 217.968 26.358 220.476 26.358C221.426 26.358 222.718 26.51 224.238 26.852L223.022 32.97C221.806 34.262 220.476 34.87 219.108 34.87ZM263.868 16.516C264.78 16.516 265.844 16.668 266.718 16.858L268.58 11.272C266.604 10.74 265.122 10.512 263.526 10.512C258.776 10.512 254.596 13.856 253.608 19.594L253.304 21.418H249.048L248.06 27.156H252.278L251.024 34.262H248.44L247.452 40H260.752L261.778 34.262H257.788L259.042 27.156H265.312L266.3 21.418H260.03L260.334 19.746C260.714 17.618 262.082 16.516 263.868 16.516ZM278.611 20.962C272.303 20.962 267.173 25.598 267.173 31.678C267.173 36.808 270.859 40.57 276.445 40.57C282.791 40.57 287.883 35.744 287.883 29.74C287.883 24.648 284.235 20.962 278.611 20.962ZM276.977 34.832C274.773 34.832 273.481 33.198 273.481 31.222C273.481 28.752 275.571 26.7 278.079 26.7C280.283 26.7 281.537 28.296 281.537 30.234C281.537 32.704 279.485 34.832 276.977 34.832ZM302.061 26.51C303.923 26.51 305.215 27.612 305.405 29.246H311.409L312.777 21.418H307.001L306.773 22.634C305.633 21.57 303.961 21 301.909 21C296.475 21 291.801 24.952 291.117 30.69C290.395 36.39 294.385 40.418 300.503 40.418C306.165 40.418 310.155 36.96 311.143 32.134H304.949C304.417 33.768 302.821 34.87 300.997 34.87C298.679 34.87 297.121 33.084 297.425 30.69C297.729 28.258 299.819 26.51 302.061 26.51ZM335.254 34.262L337.496 21.418H328.338L327.35 27.156H329.706L328.718 32.97C327.578 33.996 326.476 34.49 325.45 34.49C323.74 34.49 322.638 33.426 323.094 30.994L324.766 21.418H315.722L314.696 27.156H316.976L316.064 32.286C315.152 37.492 317.812 40.57 322.372 40.57C324.31 40.57 325.982 39.962 327.692 38.746L327.464 40H336.508L337.496 34.262H335.254ZM354.799 27.612H360.347L361.411 21.38H355.369L355.179 22.406C354.001 21.456 352.291 20.886 350.011 20.886C346.211 20.886 342.183 23.09 342.183 27.422C342.183 30.12 343.893 32.134 347.275 32.666L350.733 33.198C351.797 33.388 352.253 33.73 352.253 34.262C352.253 34.984 351.569 35.63 350.087 35.63C348.263 35.63 347.199 34.718 346.249 33.388H341.081L339.903 39.962H345.831L346.021 38.822C347.199 39.81 348.909 40.57 351.341 40.57C355.673 40.57 359.853 38.29 359.853 33.654C359.853 30.994 358.181 29.208 355.027 28.676L351.835 28.144C350.087 27.84 349.631 27.27 349.631 26.814C349.631 26.168 350.163 25.674 351.455 25.674C352.975 25.674 353.811 26.358 354.609 27.612L354.799 27.574V27.612Z" fill="#EDEDED"/>
<path d="M239.321 40.456C241.525 40.456 243.387 38.784 243.387 36.542C243.387 34.376 241.525 32.704 239.321 32.704C237.117 32.704 235.293 34.376 235.293 36.542C235.293 38.784 237.117 40.456 239.321 40.456Z" fill="#B55400"/>
<path d="M3.4 23.8C4.30174 23.8 5.16654 23.4418 5.80416 22.8042C6.44179 22.1665 6.8 21.3017 6.8 20.4V10.2C6.8 9.29826 7.15821 8.43346 7.79584 7.79584C8.43346 7.15821 9.29826 6.8 10.2 6.8H20.4C21.3017 6.8 22.1665 6.44179 22.8042 5.80416C23.4418 5.16654 23.8 4.30174 23.8 3.4C23.8 2.49826 23.4418 1.63346 22.8042 0.995837C22.1665 0.358213 21.3017 8.6497e-08 20.4 8.6497e-08H10.2C8.86047 -0.000174366 7.53402 0.263537 6.29642 0.776074C5.05882 1.28861 3.93431 2.03993 2.98712 2.98712C2.03993 3.93431 1.28861 5.05882 0.776074 6.29642C0.263537 7.53402 -0.000174366 8.86047 8.6497e-08 10.2V20.4C8.6497e-08 21.3017 0.358213 22.1665 0.995837 22.8042C1.63346 23.4418 2.49826 23.8 3.4 23.8ZM20.4 61.2H10.2C9.29826 61.2 8.43346 60.8418 7.79584 60.2042C7.15821 59.5665 6.8 58.7017 6.8 57.8V47.6C6.8 46.6983 6.44179 45.8335 5.80416 45.1958C5.16654 44.5582 4.30174 44.2 3.4 44.2C2.49826 44.2 1.63346 44.5582 0.995837 45.1958C0.358213 45.8335 8.6497e-08 46.6983 8.6497e-08 47.6V57.8C-0.000174366 59.1395 0.263537 60.466 0.776074 61.7036C1.28861 62.9412 2.03993 64.0657 2.98712 65.0129C3.93431 65.9601 5.05882 66.7114 6.29642 67.2239C7.53402 67.7365 8.86047 68.0002 10.2 68H20.4C21.3017 68 22.1665 67.6418 22.8042 67.0042C23.4418 66.3665 23.8 65.5017 23.8 64.6C23.8 63.6983 23.4418 62.8335 22.8042 62.1958C22.1665 61.5582 21.3017 61.2 20.4 61.2ZM51 37.4C51.4465 37.4 51.8886 37.3121 52.3011 37.1412C52.7136 36.9703 53.0884 36.7199 53.4042 36.4042C53.7199 36.0884 53.9703 35.7136 54.1412 35.3011C54.3121 34.8886 54.4 34.4465 54.4 34C54.4 33.5535 54.3121 33.1114 54.1412 32.6989C53.9703 32.2864 53.7199 31.9116 53.4042 31.5958C53.0884 31.2801 52.7136 31.0297 52.3011 30.8588C51.8886 30.6879 51.4465 30.6 51 30.6H47.1245C46.5141 28.2611 45.2913 26.1272 43.582 24.418C41.8728 22.7087 39.7389 21.4859 37.4 20.8755V17C37.4 16.0983 37.0418 15.2335 36.4042 14.5958C35.7665 13.9582 34.9017 13.6 34 13.6C33.0983 13.6 32.2335 13.9582 31.5958 14.5958C30.9582 15.2335 30.6 16.0983 30.6 17V20.8755C28.2611 21.4859 26.1272 22.7087 24.418 24.418C22.7087 26.1272 21.4859 28.2611 20.8755 30.6H17C16.0983 30.6 15.2335 30.9582 14.5958 31.5958C13.9582 32.2335 13.6 33.0983 13.6 34C13.6 34.9017 13.9582 35.7665 14.5958 36.4042C15.2335 37.0418 16.0983 37.4 17 37.4H20.8755C21.4859 39.7389 22.7087 41.8728 24.418 43.582C26.1272 45.2913 28.2611 46.5141 30.6 47.1245V51C30.6 51.9017 30.9582 52.7665 31.5958 53.4042C32.2335 54.0418 33.0983 54.4 34 54.4C34.9017 54.4 35.7665 54.0418 36.4042 53.4042C37.0418 52.7665 37.4 51.9017 37.4 51V47.1245C39.7389 46.5141 41.8728 45.2913 43.582 43.582C45.2913 41.8728 46.5141 39.7389 47.1245 37.4H51ZM34 40.8C32.6551 40.8 31.3404 40.4012 30.2221 39.654C29.1039 38.9068 28.2323 37.8448 27.7176 36.6022C27.2029 35.3597 27.0683 33.9925 27.3307 32.6734C27.593 31.3543 28.2407 30.1427 29.1917 29.1917C30.1427 28.2407 31.3543 27.593 32.6734 27.3307C33.9925 27.0683 35.3597 27.2029 36.6022 27.7176C37.8448 28.2323 38.9068 29.1039 39.654 30.2221C40.4012 31.3404 40.8 32.6551 40.8 34C40.8 35.8035 40.0836 37.5331 38.8083 38.8083C37.5331 40.0836 35.8035 40.8 34 40.8ZM64.6 44.2C64.1535 44.2 63.7114 44.2879 63.2989 44.4588C62.8864 44.6297 62.5116 44.8801 62.1958 45.1958C61.8801 45.5116 61.6297 45.8864 61.4588 46.2989C61.2879 46.7114 61.2 47.1535 61.2 47.6V57.8C61.2 58.2465 61.1121 58.6886 60.9412 59.1011C60.7703 59.5136 60.5199 59.8884 60.2042 60.2042C59.8884 60.5199 59.5136 60.7703 59.1011 60.9412C58.6886 61.1121 58.2465 61.2 57.8 61.2H47.6C46.6983 61.2 45.8335 61.5582 45.1958 62.1958C44.5582 62.8335 44.2 63.6983 44.2 64.6C44.2 65.5017 44.5582 66.3665 45.1958 67.0042C45.8335 67.6418 46.6983 68 47.6 68H57.8C59.1395 68.0002 60.466 67.7365 61.7036 67.2239C62.9412 66.7114 64.0657 65.9601 65.0129 65.0129C65.9601 64.0657 66.7114 62.9412 67.2239 61.7036C67.7365 60.466 68.0002 59.1395 68 57.8V47.6C68 46.6983 67.6418 45.8335 67.0042 45.1958C66.3665 44.5582 65.5017 44.2 64.6 44.2ZM57.8 8.6497e-08H47.6C46.6983 8.6497e-08 45.8335 0.358213 45.1958 0.995837C44.5582 1.63346 44.2 2.49826 44.2 3.4C44.2 4.30174 44.5582 5.16654 45.1958 5.80416C45.8335 6.44179 46.6983 6.8 47.6 6.8H57.8C58.2465 6.8 58.6886 6.88794 59.1011 7.05881C59.5136 7.22968 59.8884 7.48012 60.2042 7.79584C60.5199 8.11156 60.7703 8.48637 60.9412 8.89888C61.1121 9.31138 61.2 9.75351 61.2 10.2V20.4C61.2 21.3017 61.5582 22.1665 62.1958 22.8042C62.8335 23.4418 63.6983 23.8 64.6 23.8C65.5017 23.8 66.3665 23.4418 67.0042 22.8042C67.6418 22.1665 68 21.3017 68 20.4V10.2C68.0002 8.86047 67.7365 7.53402 67.2239 6.29642C66.7114 5.05882 65.9601 3.93431 65.0129 2.98712C64.0657 2.03993 62.9412 1.28861 61.7036 0.776074C60.466 0.263537 59.1395 -0.000174366 57.8 8.6497e-08Z" fill="#EDEDED"/>
</svg>
